FFmpeg version SVN-r25716, Copyright (c) 2000-2010 the FFmpeg developers  built on Nov 10 2010 12:23:18 with gcc 4.1.2 20080704 (Red Hat 4.1.2-48)  configuration: --enable-libmp3lame --enable-shared --disable-mmx --arch=x86_64  libavutil     50.33. 0 / 50.33. 0  libavcore      0.12. 1 /  0.12. 1  libavcodec    52.94. 4 / 52.94. 4  libavformat   52.84. 0 / 52.84. 0  libavdevice   52. 2. 2 / 52. 2. 2  libavfilter    1.59. 0 /  1.59. 0  libswscale     0.12. 0 /  0.12. 0Input #0, avi, from '/RAID10/data/converted_video_files/12608.avi':  Duration: 00:00:10.30, start: 0.000000, bitrate: 320003 kb/s    Stream #0.0: Video: rawvideo, bgra, 1000x1000, 10 tbr, 10 tbn, 10 tbc[buffer @ 0x1985db90] w:1000 h:1000 pixfmt:bgra[ffsink @ 0x1982ec50] auto-inserting filter 'auto-inserted scaler 0' between the filter 'src' and the filter 'out'[scale @ 0x1982ef70] w:1000 h:1000 fmt:bgra -> w:1000 h:1000 fmt:yuv420p flags:0x4Output #0, flv, to '/RAID10/data/converted_video_files/12608.flv':  Metadata:    encoder         : Lavf52.84.0    Stream #0.0: Video: flv, yuv420p, 1000x1000, q=2-31, 600 kb/s, 1k tbn, 24 tbcStream mapping:  Stream #0.0 -> #0.0Press [q] to stop encodingframe=    4 fps=  0 q=2.0 size=     207kB time=0.33 bitrate=5066.8kbits/s    frame=    8 fps=  5 q=10.9 size=     260kB time=0.75 bitrate=2848.4kbits/s    frame=   14 fps=  7 q=20.0 size=     299kB time=1.33 bitrate=1835.6kbits/s    frame=   21 fps=  8 q=20.2 size=     319kB time=2.04 bitrate=1278.2kbits/s    frame=   27 fps=  9 q=22.8 size=     361kB time=2.62 bitrate=1126.2kbits/s    frame=   34 fps=  9 q=21.1 size=     376kB time=3.33 bitrate= 923.0kbits/s    frame=   40 fps=  9 q=23.1 size=     418kB time=3.96 bitrate= 864.6kbits/s    frame=   46 fps= 10 q=22.5 size=     438kB time=4.54 bitrate= 789.2kbits/s    frame=   52 fps= 10 q=25.7 size=     485kB time=5.12 bitrate= 774.5kbits/s    frame=   61 fps= 10 q=19.5 size=     543kB time=6.04 bitrate= 736.3kbits/s    frame=   69 fps= 11 q=27.0 size=     599kB time=6.83 bitrate= 717.5kbits/s    frame=   78 fps= 11 q=29.3 size=     628kB time=7.75 bitrate= 663.4kbits/s    frame=   85 fps= 11 q=23.5 size=     683kB time=8.46 bitrate= 661.6kbits/s    frame=   93 fps= 11 q=31.0 size=     742kB time=9.25 bitrate= 656.9kbits/s    frame=  103 fps= 12 q=31.0 size=     771kB time=10.25 bitrate= 616.5kbits/s    frame=  103 fps= 12 q=31.0 Lsize=     771kB time=10.25 bitrate= 616.5kbits/s    video:770kB audio:0kB global headers:0kB muxing overhead 0.235769%